<?xml version="1.0" encoding="UTF-8"?>
<svg xmlns="http://www.w3.org/2000/svg" xmlns:xlink="http://www.w3.org/1999/xlink" width="512px" height="px" viewBox="0 0 512 514" version="1.1">
<g id="surface1">
<path style=" stroke:none;fill-rule:nonzero;fill:rgb(0%,0%,0%);fill-opacity:1;" d="M 181.828125 49.675781 C 171.042969 52.140625 162.3125 55.628906 154.503906 60.65625 C 150.1875 63.53125 144.746094 66.507812 142.382812 67.433594 C 130.566406 72.152344 110.226562 87.652344 103.242188 97.402344 C 101.597656 99.761719 98.824219 103.355469 97.285156 105.40625 C 92.351562 111.976562 84.648438 126.34375 80.332031 137.53125 C 76.636719 146.972656 64.71875 189.363281 64.71875 193.058594 C 64.71875 193.878906 60.609375 210.402344 55.472656 229.902344 C 45.304688 269.007812 44.171875 273.628906 44.171875 274.960938 C 44.171875 275.988281 50.746094 284.402344 58.761719 293.640625 C 61.433594 296.71875 66.464844 302.777344 70.0625 307.1875 C 73.65625 311.601562 79.511719 318.785156 83.210938 323.300781 C 86.910156 327.714844 92.25 334.285156 95.023438 337.773438 C 97.902344 341.265625 104.0625 348.757812 108.890625 354.503906 C 113.722656 360.148438 118.855469 366.308594 120.191406 368.15625 C 121.628906 369.898438 133.648438 384.472656 146.902344 400.382812 C 178.746094 438.664062 182.855469 443.488281 190.253906 452.625 C 193.644531 456.832031 198.984375 463.09375 202.066406 466.378906 L 207.71875 472.433594 L 219.632812 475.304688 C 239.871094 480.128906 253.433594 481.773438 274.800781 481.773438 C 303.871094 481.773438 323.902344 478.078125 347.324219 468.328125 C 360.269531 462.886719 369.414062 457.449219 380.507812 448.621094 C 389.546875 441.4375 403.519531 426.863281 408.140625 419.882812 C 420.160156 401.511719 425.8125 390.425781 432.078125 372.773438 C 434.542969 365.691406 438.445312 352.453125 440.707031 343.417969 C 442.964844 334.285156 445.636719 324.226562 446.664062 321.042969 L 448.410156 315.195312 L 450.464844 317.554688 C 451.59375 318.890625 452.621094 320.53125 452.828125 321.351562 C 453.445312 323.816406 458.375 331.511719 459.402344 331.511719 C 459.917969 331.511719 460.121094 331.925781 459.8125 332.4375 C 459.503906 332.847656 459.917969 334.078125 460.636719 335.105469 C 461.765625 336.746094 462.074219 334.078125 462.691406 317.042969 L 463.511719 297.128906 L 469.164062 291.382812 C 472.242188 288.097656 474.710938 285.121094 474.503906 284.609375 C 474.296875 283.992188 470.292969 280.296875 465.667969 276.191406 C 458.683594 270.035156 457.144531 268.085938 456.527344 265.003906 C 454.472656 252.277344 447.382812 232.367188 443.273438 227.234375 C 440.910156 224.464844 440.808594 224.363281 440.707031 226.515625 C 440.707031 231.855469 438.34375 229.1875 432.386719 216.871094 C 428.890625 209.683594 424.0625 200.449219 421.496094 196.445312 L 416.976562 189.054688 L 421.1875 173.863281 C 423.550781 165.449219 426.835938 153.234375 428.480469 146.769531 C 430.226562 140.304688 433.414062 128.601562 435.671875 120.699219 C 437.933594 112.898438 439.472656 106.226562 439.164062 105.816406 C 438.753906 105.507812 423.652344 105.097656 405.46875 104.894531 C 376.089844 104.585938 363.453125 105.203125 348.25 107.355469 C 345.578125 107.765625 343.832031 107.355469 341.367188 105.507812 C 313.734375 85.699219 310.242188 83.441406 290.207031 72.667969 C 271.410156 62.503906 244.800781 53.269531 224.566406 49.777344 C 213.777344 47.929688 189.945312 47.929688 181.828125 49.675781 Z M 245.109375 77.488281 C 260.109375 80.054688 280.757812 86.933594 296.371094 94.425781 C 312.910156 102.53125 330.273438 112.285156 330.273438 113.617188 C 330.273438 114.542969 316.917969 126.242188 315.890625 126.242188 C 315.582031 126.242188 315.378906 125.730469 315.378906 125.113281 C 315.378906 122.238281 310.550781 114.542969 307.054688 111.769531 C 298.734375 105.203125 299.863281 105.304688 248.910156 104.894531 C 204.636719 104.484375 202.582031 104.585938 202.066406 106.433594 C 199.601562 114.644531 192.101562 142.867188 192.101562 143.894531 C 192 144.613281 191.382812 146.5625 190.664062 148.308594 L 189.328125 151.386719 L 187.582031 147.28125 C 185.117188 141.636719 181.109375 125.933594 180.289062 118.851562 C 179.570312 112.285156 181.109375 102.019531 183.78125 95.863281 C 187.890625 86.726562 196.109375 80.464844 208.332031 77.59375 C 216.242188 75.640625 234.015625 75.640625 245.109375 77.488281 Z M 159.230469 112.898438 C 162.414062 122.445312 171.660156 139.480469 179.980469 151.183594 L 187.070312 161.136719 L 183.0625 175.710938 L 178.953125 190.183594 L 181.109375 194.90625 C 182.652344 198.496094 183.269531 199.113281 183.578125 197.574219 C 184.296875 193.980469 200.421875 134.761719 205.355469 117.519531 L 207.101562 111.359375 L 219.941406 111.460938 C 226.929688 111.566406 246.550781 111.667969 263.601562 111.769531 C 293.90625 111.871094 294.625 111.871094 297.914062 114.234375 C 306.234375 119.777344 307.773438 129.011719 303.667969 148.820312 C 301.097656 161.136719 295.140625 183.71875 287.125 211.941406 C 284.96875 219.230469 281.476562 231.75 279.214844 239.65625 C 276.957031 247.558594 273.976562 256.179688 272.539062 258.746094 C 268.429688 266.339844 261.445312 272.910156 253.328125 276.601562 C 239.253906 282.96875 234.425781 283.582031 195.492188 284.097656 C 176.078125 284.300781 160.257812 284.199219 160.257812 283.890625 C 160.257812 283.480469 162.414062 275.472656 165.085938 266.03125 C 167.652344 256.589844 170.835938 244.683594 172.070312 239.65625 L 174.226562 230.417969 L 180.390625 230.109375 C 185.425781 229.902344 187.480469 230.316406 192.207031 232.675781 L 197.855469 235.550781 L 190.152344 226.515625 C 176.179688 210.199219 173.613281 207.015625 164.878906 193.980469 C 145.257812 164.9375 136.21875 136.8125 139.609375 115.261719 C 140.738281 107.664062 145.359375 95.453125 147.109375 95.453125 C 147.621094 95.453125 147.722656 94.9375 147.3125 94.21875 C 146.902344 93.605469 147.003906 93.398438 147.621094 93.707031 C 148.238281 94.117188 150.085938 93.707031 151.628906 92.886719 L 154.605469 91.347656 L 155.738281 98.839844 C 156.457031 102.839844 157.996094 109.203125 159.230469 112.898438 Z M 428.996094 112.589844 C 427.25 118.75 414.40625 165.960938 412.96875 171.914062 L 411.222656 179.097656 L 388.519531 179.40625 L 365.917969 179.613281 L 368.386719 170.683594 C 369.824219 165.652344 371.980469 157.441406 373.316406 152.414062 C 376.398438 140.507812 378.042969 136.8125 382.046875 132.503906 L 385.335938 129.011719 L 380.097656 129.628906 C 373.109375 130.449219 367.253906 133.835938 362.117188 140.097656 C 357.804688 145.433594 355.851562 151.492188 342.601562 200.140625 C 328.730469 251.253906 326.472656 258.027344 322.363281 262.441406 L 320.207031 264.800781 L 323.699219 264.800781 C 329.863281 264.800781 337.257812 262.027344 340.855469 258.335938 C 345.683594 253.40625 348.867188 243.863281 358.625 205.988281 L 359.652344 202.191406 L 382.253906 202.191406 C 403.3125 202.191406 404.855469 202.296875 404.339844 203.9375 C 404.03125 204.964844 401.054688 215.433594 397.664062 227.339844 C 390.472656 252.894531 390.265625 253.304688 386.054688 259.464844 C 380.300781 267.878906 371.878906 275.269531 363.453125 279.375 L 355.542969 283.273438 L 310.242188 283.273438 L 300.171875 278.246094 C 287.125 271.675781 281.476562 267.46875 281.476562 264.492188 C 281.476562 261.207031 285.484375 245.09375 292.777344 218.101562 C 296.371094 205.066406 299.863281 191.722656 300.6875 188.335938 C 301.507812 184.949219 304.695312 173.863281 307.773438 163.703125 C 316.199219 136.402344 321.234375 129.011719 337.464844 120.1875 C 352.769531 111.769531 357.289062 111.050781 396.839844 110.949219 C 427.558594 110.847656 429.507812 110.949219 428.996094 112.589844 Z M 98.621094 163.191406 C 98.621094 163.5 96.152344 178.277344 93.070312 196.035156 C 89.992188 213.789062 87.628906 228.46875 87.832031 228.671875 C 88.140625 228.980469 94.40625 211.738281 101.394531 191.414062 C 103.859375 184.027344 106.324219 177.664062 106.734375 177.253906 C 107.144531 176.839844 110.535156 179.511719 114.234375 183.101562 L 121.015625 189.773438 L 119.988281 194.1875 C 119.472656 196.648438 114.851562 214.714844 109.816406 234.523438 C 97.078125 285.019531 94.613281 294.976562 95.023438 295.386719 C 95.125 295.589844 96.566406 291.894531 98.105469 287.175781 C 100.570312 279.683594 107.761719 259.359375 124.097656 213.175781 C 126.5625 205.988281 129.027344 200.140625 129.4375 200.140625 C 129.847656 200.140625 133.035156 203.835938 136.527344 208.246094 L 142.792969 216.355469 L 140.328125 231.136719 C 138.890625 239.242188 136.628906 253.203125 135.191406 262.234375 C 133.753906 271.265625 130.980469 287.6875 129.027344 298.671875 C 127.074219 309.652344 125.226562 320.53125 124.917969 322.789062 C 124.199219 327.304688 132.316406 298.15625 135.601562 284.300781 C 140.226562 264.699219 150.496094 225.796875 151.011719 225.796875 C 151.730469 225.902344 163.339844 240.988281 164.058594 242.835938 C 164.675781 244.582031 159.230469 265.828125 158.097656 265.828125 C 157.6875 265.828125 156.96875 264.59375 156.457031 263.054688 C 155.632812 260.796875 154.710938 263.363281 150.601562 279.578125 C 147.929688 290.152344 145.976562 299.492188 146.285156 300.3125 C 147.210938 302.777344 149.777344 301.953125 152.757812 298.15625 L 155.632812 294.566406 L 168.269531 294.566406 C 175.152344 294.566406 180.800781 294.667969 180.800781 294.871094 C 180.800781 295.078125 178.953125 305.546875 176.695312 318.171875 C 174.433594 330.796875 172.585938 341.675781 172.585938 342.289062 C 172.585938 342.804688 174.945312 336.644531 177.824219 328.433594 C 180.699219 320.222656 184.5 309.34375 186.246094 304.316406 L 189.535156 295.078125 L 208.027344 294.460938 L 216.347656 304.621094 L 224.667969 314.679688 L 221.894531 325.148438 C 220.457031 330.898438 218.914062 335.824219 218.605469 336.132812 C 218.296875 336.441406 216.140625 334.59375 213.777344 332.027344 C 211.210938 329.253906 209.359375 327.921875 209.054688 328.640625 C 208.847656 329.359375 207.304688 335.3125 205.664062 341.777344 L 202.582031 353.582031 L 207 359.429688 C 209.464844 362.816406 211.3125 366.101562 211.003906 367.128906 C 207.71875 382.113281 206.175781 387.964844 205.664062 387.964844 C 205.253906 387.859375 203.09375 385.601562 200.9375 382.730469 C 198.164062 379.238281 196.621094 378.007812 196.109375 378.929688 C 195.699219 379.648438 194.15625 385.910156 192.617188 392.789062 C 189.535156 406.644531 189.328125 405.101562 195.59375 413.007812 L 198.472656 416.703125 L 195.59375 428.09375 L 192.820312 439.382812 L 190.460938 436.511719 C 189.226562 434.96875 184.707031 429.429688 180.390625 424.398438 C 176.078125 419.265625 172.789062 414.441406 173.097656 413.621094 C 174.125 409.722656 191.28125 342.804688 194.566406 329.5625 C 196.621094 321.351562 198.0625 314.578125 197.855469 314.375 C 197.648438 314.066406 196.210938 317.761719 194.671875 322.480469 C 193.128906 327.203125 187.683594 342.496094 182.652344 356.660156 C 177.617188 370.71875 171.558594 387.550781 169.195312 394.019531 L 164.980469 405.820312 L 161.488281 401.714844 C 159.539062 399.5625 156.867188 396.277344 155.429688 394.429688 L 152.859375 391.144531 L 154.605469 379.035156 C 156.457031 365.691406 164.058594 318.171875 164.878906 314.066406 C 165.1875 312.628906 164.058594 314.066406 162.3125 317.144531 C 160.566406 320.222656 157.894531 324.019531 156.148438 325.5625 C 153.167969 328.230469 153.066406 328.84375 151.113281 346.601562 C 149.984375 356.660156 148.75 368.667969 148.339844 373.390625 C 147.929688 378.007812 147.3125 382.113281 146.902344 382.316406 C 146.492188 382.625 143.921875 380.164062 141.355469 376.980469 C 136.9375 371.746094 136.628906 370.824219 137.144531 367.027344 C 140.429688 341.265625 141.867188 325.046875 140.945312 324.125 C 139.503906 322.6875 139.8125 321.867188 134.472656 343.316406 C 132.109375 352.863281 129.847656 361.074219 129.539062 361.378906 C 129.234375 361.792969 124.609375 356.761719 119.269531 350.296875 L 109.613281 338.492188 L 111.359375 328.640625 C 112.28125 323.097656 113 318.375 113 318.066406 C 113 317.761719 111.253906 315.503906 109.097656 313.140625 L 105.089844 308.726562 L 102.832031 315.195312 C 101.597656 318.785156 100.261719 322.585938 99.851562 323.714844 C 99.132812 325.253906 97.902344 324.125 91.53125 316.835938 C 87.421875 312.011719 83.003906 306.46875 81.667969 304.519531 C 79.304688 301.132812 79.203125 300.722656 80.640625 295.488281 C 83.929688 282.863281 91.429688 252.585938 91.429688 251.765625 C 91.324219 250.226562 88.347656 257.921875 82.183594 275.269531 C 74.476562 297.335938 75.09375 296.308594 71.5 292.613281 L 68.621094 289.636719 L 72.9375 263.773438 C 75.300781 249.609375 77.046875 237.5 76.839844 236.882812 C 76.53125 236.164062 73.65625 246.429688 70.265625 259.464844 L 64.101562 283.273438 L 58.863281 277.21875 L 53.523438 271.164062 L 58.453125 252.382812 C 61.226562 242.015625 64 230.929688 64.617188 227.851562 C 65.234375 224.773438 69.238281 209.070312 73.449219 192.957031 C 77.664062 176.839844 81.773438 160.316406 82.695312 156.109375 C 83.519531 152.003906 84.546875 148.207031 84.855469 147.691406 C 85.367188 146.871094 98.621094 161.753906 98.621094 163.191406 Z M 418.722656 208.453125 C 425.296875 221.386719 431.5625 245.195312 429.816406 249.917969 C 429.40625 250.945312 427.453125 250.738281 421.394531 248.789062 C 417.078125 247.453125 411.324219 246.019531 408.65625 245.710938 C 405.984375 245.300781 403.3125 244.476562 402.800781 243.863281 C 402.285156 243.144531 403.414062 237.601562 405.882812 229.390625 C 408.039062 222 410.503906 212.660156 411.429688 208.554688 C 412.457031 204.140625 413.585938 201.167969 414.304688 201.472656 C 414.921875 201.679688 416.875 204.757812 418.722656 208.453125 Z M 450.261719 250.019531 C 451.699219 254.023438 453.546875 260.796875 454.472656 264.902344 C 455.601562 270.445312 456.628906 273.011719 458.375 274.242188 C 465.875 279.886719 470.496094 283.890625 470.496094 285.019531 C 470.496094 285.636719 468.238281 288.203125 465.359375 290.765625 L 460.226562 295.386719 L 460.226562 308.726562 C 460.226562 319.402344 459.917969 322.277344 458.683594 323.300781 C 457.347656 324.433594 457.246094 324.328125 457.757812 322.789062 C 458.375 321.351562 458.171875 321.148438 457.144531 321.761719 C 456.21875 322.378906 456.011719 322.171875 456.628906 321.351562 C 457.144531 320.429688 449.746094 306.46875 446.355469 301.953125 C 446.253906 301.851562 443.683594 303.289062 440.605469 305.339844 C 437.625 307.292969 434.644531 308.933594 434.027344 308.933594 C 433.515625 308.933594 433.925781 309.652344 434.953125 310.472656 C 437.316406 312.320312 436.90625 312.9375 432.28125 314.066406 C 430.433594 314.578125 427.042969 315.503906 424.785156 316.015625 C 420.160156 317.246094 410.914062 317.246094 406.292969 316.117188 C 404.648438 315.707031 403.828125 315.296875 404.441406 315.195312 C 405.164062 315.195312 408.65625 311.601562 412.148438 307.292969 C 423.449219 293.539062 424.269531 292.613281 423.757812 295.386719 C 423.550781 296.617188 423.757812 297.4375 424.269531 297.128906 C 424.785156 296.824219 425.398438 297.027344 425.707031 297.542969 C 426.425781 298.566406 416.460938 310.988281 414.921875 310.988281 C 414.40625 310.988281 413.996094 311.398438 413.996094 312.011719 C 413.996094 313.347656 425.398438 313.347656 428.996094 312.011719 C 430.945312 311.191406 432.179688 311.292969 433.414062 312.21875 C 434.953125 313.347656 434.953125 313.246094 433.414062 311.703125 C 432.078125 310.164062 431.253906 310.0625 428.996094 310.988281 C 427.453125 311.5 423.859375 312.011719 421.085938 312.011719 L 415.949219 312.011719 L 421.394531 305.546875 C 428.378906 297.4375 431.769531 291.894531 430.84375 290.355469 C 430.433594 289.636719 430.535156 289.433594 431.152344 289.742188 C 432.488281 290.5625 433.824219 287.6875 432.796875 286.148438 C 432.488281 285.53125 432.695312 285.328125 433.308594 285.738281 C 433.925781 286.046875 434.644531 285.121094 435.054688 283.171875 C 435.671875 280.503906 435.261719 279.476562 432.796875 276.808594 C 431.152344 274.960938 428.585938 271.675781 427.042969 269.417969 C 425.503906 267.058594 421.90625 262.542969 419.03125 259.359375 C 416.152344 256.078125 413.996094 253.203125 414.304688 252.894531 C 415.230469 251.972656 426.117188 255.460938 434.234375 259.15625 L 441.734375 262.644531 L 442.65625 258.847656 C 443.273438 256.792969 443.992188 252.996094 444.300781 250.429688 C 445.84375 238.9375 446.355469 238.9375 450.261719 250.019531 Z M 406.910156 254.230469 C 409.375 257.511719 412.96875 262.441406 414.820312 265.3125 C 416.769531 268.085938 419.234375 271.265625 420.367188 272.191406 C 421.496094 273.214844 422.113281 274.039062 421.703125 274.039062 C 421.289062 274.039062 422.214844 275.472656 423.652344 277.21875 C 426.734375 280.8125 426.835938 281.425781 424.886719 285.121094 C 421.289062 292 411.019531 298.464844 399.410156 301.234375 C 391.089844 303.1875 373.214844 303.1875 363.25 301.234375 C 354.621094 299.59375 338.695312 295.488281 339.210938 295.078125 C 339.414062 294.871094 343.421875 294.050781 348.25 293.230469 C 370.644531 289.332031 386.054688 278.449219 395.199219 260.285156 C 399.410156 251.867188 401.464844 248.378906 402.183594 248.378906 C 402.285156 248.378906 404.441406 251.046875 406.910156 254.230469 Z M 285.378906 275.371094 C 319.488281 298.875 337.15625 308.832031 357.90625 316.222656 C 389.238281 327.511719 409.167969 328.023438 429.40625 317.964844 C 434.234375 315.605469 438.550781 313.449219 438.960938 313.246094 C 439.472656 313.039062 436.597656 315.808594 432.695312 319.503906 C 419.75 331.617188 407.523438 335.925781 385.234375 336.03125 C 360.886719 336.132812 340.03125 330.691406 308.1875 316.222656 C 293.394531 309.445312 275.003906 299.386719 262.164062 291.28125 L 255.691406 287.074219 L 261.957031 283.070312 C 265.347656 280.8125 270.074219 277.015625 272.4375 274.449219 C 274.902344 271.984375 276.957031 269.933594 277.164062 269.933594 C 277.265625 269.933594 280.964844 272.394531 285.378906 275.371094 Z M 427.351562 296.617188 C 427.351562 297.128906 427.144531 297.644531 426.941406 297.644531 C 426.632812 297.644531 426.117188 297.128906 425.8125 296.617188 C 425.503906 296 425.707031 295.589844 426.222656 295.589844 C 426.835938 295.589844 427.351562 296 427.351562 296.617188 Z M 438.960938 310.574219 C 438.550781 311.703125 438.136719 311.808594 436.90625 310.882812 C 435.773438 309.859375 435.773438 309.445312 436.800781 308.832031 C 438.550781 307.804688 439.679688 308.625 438.960938 310.574219 Z M 233.914062 326.074219 L 236.480469 329.460938 L 232.886719 343.523438 C 230.933594 351.324219 227.132812 366.203125 224.566406 376.671875 C 221.996094 387.140625 217.785156 403.667969 215.214844 413.519531 L 210.59375 431.277344 L 215.214844 436.613281 L 219.738281 441.949219 L 217.066406 452.214844 C 215.628906 457.753906 214.085938 462.785156 213.675781 463.195312 C 213.265625 463.707031 210.695312 461.140625 207.921875 457.550781 C 205.148438 453.957031 200.9375 448.929688 198.472656 446.261719 L 194.054688 441.539062 L 199.703125 420.089844 C 202.785156 408.386719 207.71875 389.296875 210.492188 377.699219 C 216.757812 352.246094 224.875 320.328125 225.59375 318.171875 C 226.207031 316.632812 227.132812 317.453125 233.914062 326.074219 Z M 233.914062 326.074219 "/>
<path style=" stroke:none;fill-rule:nonzero;fill:rgb(0%,0%,0%);fill-opacity:1;" d="M 243.261719 132.914062 C 244.800781 134.863281 245.316406 136.503906 244.90625 138.457031 C 244.289062 140.917969 237.40625 166.269531 223.742188 215.535156 C 216.140625 243.042969 210.902344 258.949219 208.332031 262.234375 L 206.074219 265.109375 L 212.03125 264.390625 C 221.996094 263.261719 227.542969 259.566406 230.730469 251.972656 C 233.605469 244.992188 241.207031 219.949219 246.136719 201.167969 C 248.707031 191.3125 253.125 174.890625 256 164.730469 C 258.773438 154.570312 261.34375 143.691406 261.648438 140.609375 C 262.472656 132.605469 260.417969 130.964844 249.324219 130.449219 L 241.105469 130.140625 Z M 243.261719 132.914062 "/>
<path style=" stroke:none;fill-rule:nonzero;fill:rgb(0%,0%,0%);fill-opacity:1;" d="M 77.148438 233.597656 C 77.148438 234.726562 77.457031 235.035156 77.765625 234.214844 C 78.074219 233.496094 77.972656 232.574219 77.664062 232.265625 C 77.355469 231.855469 77.046875 232.46875 77.148438 233.597656 Z M 77.148438 233.597656 "/>
<path style=" stroke:none;fill-rule:nonzero;fill:rgb(0%,0%,0%);fill-opacity:1;" d="M 118.652344 268.390625 L 111.5625 290.460938 L 114.027344 293.023438 C 115.363281 294.460938 116.800781 295.589844 117.109375 295.589844 C 117.523438 295.589844 118.136719 293.128906 118.550781 290.152344 C 118.960938 287.277344 120.910156 276.296875 122.863281 265.929688 C 124.816406 255.5625 126.253906 246.839844 126.046875 246.738281 C 125.84375 246.53125 122.554688 256.28125 118.652344 268.390625 Z M 118.652344 268.390625 "/>
</g>
</svg>
